<svg xmlns="http://www.w3.org/2000/svg" version="1.1" xmlns:xlink="http://www.w3.org/1999/xlink" width="512" height="512" x="0" y="0" viewBox="0 0 512 512" xml:space="preserve"><rect width="512" height="512" rx="102.4" ry="102.4" fill="#ff5722" shape="rounded" transform="matrix(0.8,0,0,0.8,51.19999999999999,51.19999999999999)"></rect><g transform="matrix(0.8300000000000002,0,0,0.8300000000000002,43.51999999999995,43.51999999999995)"><path d="m32 0 40.8 460.8L256 512l183.136-51.168L480 0z" style="" fill="#ff5722" data-original="#ff5722" opacity="0"></path><path d="M391.52 150.688H176.8l5.12 57.888H386.4l-15.392 173.568L256 414.24l-.096.032-114.944-32.128-8.032-90.784h56.32l4.192 47.104 62.496 16.992.064-.032 62.56-16.992 6.528-73.312H130.624L115.456 94.208H396.512z" style="" fill="#fafafa" data-original="#fafafa"></path></g></svg>