<svg xmlns="http://www.w3.org/2000/svg" version="1.1" xmlns:xlink="http://www.w3.org/1999/xlink" width="512" height="512" x="0" y="0" viewBox="0 0 512 512" xml:space="preserve"><rect width="512" height="512" rx="102.4" ry="102.4" fill="#2196f3" shape="rounded" transform="matrix(0.8,0,0,0.8,51.19999999999999,51.19999999999999)"></rect><g transform="matrix(0.81,0,0,0.81,48.639999999999986,48.639999999999986)"><path d="m32 0 40.8 460.8L256 512l183.136-51.168L480 0z" style="" fill="#2196f3" data-original="#2196f3" opacity="0"></path><path d="m392.768 150.688-5.152 57.888-15.552 173.536L256 414.208l-.096.032-116-32.128-8.096-90.752h56.832l4.224 47.072 63.072 17.024.032-.032 63.168-17.024 8.608-78.432-198.656.544-5.632-53.632 209.056-2.464 4.224-57.408-218.88.608-3.68-53.408h283.648z" style="" fill="#fafafa" data-original="#fafafa"></path></g></svg>